{
	"asset":{
		"generator":"Khronos glTF Blender I/O v4.4.55",
		"version":"2.0"
	},
	"scene":0,
	"scenes":[
		{
			"name":"Scene",
			"nodes":[
				0
			]
		}
	],
	"nodes":[
		{
			"mesh":0,
			"name":"Icon.2",
			"translation":[
				0,
				0.7612488269805908,
				0
			]
		}
	],
	"materials":[
		{
			"doubleSided":true,
			"name":"Material",
			"pbrMetallicRoughness":{
				"baseColorFactor":[
					0.8000473976135254,
					0,
					0.0036272865254431963,
					1
				],
				"metallicFactor":0,
				"roughnessFactor":0.5
			}
		}
	],
	"meshes":[
		{
			"name":"Icon.2",
			"primitives":[
				{
					"attributes":{
						"POSITION":0,
						"NORMAL":1
					},
					"indices":2,
					"material":0
				}
			]
		}
	],
	"accessors":[
		{
			"bufferView":0,
			"componentType":5126,
			"count":9480,
			"max":[
				0.07887744158506393,
				-0.23725488781929016,
				0.021511027589440346
			],
			"min":[
				-0.08040907979011536,
				-0.7598956823348999,
				-0.023764220997691154
			],
			"type":"VEC3"
		},
		{
			"bufferView":1,
			"componentType":5126,
			"count":9480,
			"type":"VEC3"
		},
		{
			"bufferView":2,
			"componentType":5123,
			"count":9480,
			"type":"SCALAR"
		}
	],
	"bufferViews":[
		{
			"buffer":0,
			"byteLength":113760,
			"byteOffset":0,
			"target":34962
		},
		{
			"buffer":0,
			"byteLength":113760,
			"byteOffset":113760,
			"target":34962
		},
		{
			"buffer":0,
			"byteLength":18960,
			"byteOffset":227520,
			"target":34963
		}
	],
	"buffers":[
		{
			"byteLength":246480,
			"uri":"Red%20Beacon.bin"
		}
	]
}
